<?xml version="1.0" encoding="utf-8"?>
<!-- Generator: Adobe Illustrator 21.1.0, SVG Export Plug-In . SVG Version: 6.00 Build 0)  -->
<svg version="1.1" id="Layer_1" xmlns="http://www.w3.org/2000/svg" xmlns:xlink="http://www.w3.org/1999/xlink" x="0px" y="0px"
	 width="150px" height="100px" viewBox="0 0 150 100" style="enable-background:new 0 0 150 100;" xml:space="preserve">
<style type="text/css">
	.st0{fill:#004834;}
	.st1{fill:#AB5210;}
</style>
<polygon class="st0" points="74.4,7 54.2,18.7 54.2,42.1 74.4,53.9 74.4,47 60.2,38.7 60.2,22.2 68.5,17.3 68.5,35.4 74.4,38.8 
	74.4,14 74.3,14 74.4,13.9 "/>
<polygon class="st0" points="75.6,7 75.6,13.9 75.7,14 75.6,14 75.6,38.8 81.5,35.4 81.5,17.3 89.8,22.2 89.8,38.7 75.6,47 
	75.6,53.9 95.8,42.1 95.8,18.7 "/>
<path class="st0" d="M83.4,76.2L83.4,76.2l0.1,1.2h3.9c0,0,1.2-4.8,6.4-6.3C93.8,71.1,87.4,70.4,83.4,76.2"/>
<path class="st0" d="M100.4,76.8l-5.6-16.3c-0.1-0.2-0.3-0.4-0.6-0.4h-5.1c-0.3,0-0.5,0.2-0.6,0.4l-5.6,16.3
	c-0.1,0.4,0.2,0.8,0.6,0.8h3.4c0.3,0,0.5-0.2,0.6-0.4l0.8-2.7l1-3.4l1.8-5.8c0.1-0.4,0.2-0.7,0.3-1.1c0.1-0.4,0.2-0.8,0.3-1.2
	c0.2,0.6,0.3,1.1,0.4,1.5s0.2,0.7,0.2,0.9l1.8,5.8l1,3.4l0.8,2.7l0,0l0.1,0.4h0.5h2h1.4C100.2,77.6,100.5,77.2,100.4,76.8"/>
<path class="st0" d="M102.3,77.6V60.1h4.6l6.6,9c0.1,0.2,0.3,0.6,0.6,1.1c0.3,0.6,0.6,1.2,1,2c-0.1-0.7-0.2-1.4-0.2-1.9
	c0-0.6-0.1-1.1-0.1-1.5v-8.7h4.6v17.5h-4.6l-6.6-9.1c-0.1-0.2-0.3-0.6-0.6-1.1c-0.3-0.6-0.6-1.2-0.9-2c0.1,0.7,0.2,1.4,0.2,2
	s0.1,1.1,0.1,1.5v8.7L102.3,77.6L102.3,77.6z"/>
<path class="st0" d="M123.1,77V60.6c0-0.3,0.3-0.6,0.6-0.6h3.6c0.3,0,0.6,0.3,0.6,0.6v5.7c0,0.3,0.3,0.6,0.6,0.6h5.2
	c0.3,0,0.6-0.3,0.6-0.6v-5.7c0-0.3,0.3-0.6,0.6-0.6h3.6c0.3,0,0.6,0.3,0.6,0.6V77c0,0.3-0.3,0.6-0.6,0.6h-3.6
	c-0.3,0-0.6-0.3-0.6-0.6v-6c0-0.3-0.3-0.6-0.6-0.6h-5.2c-0.3,0-0.6,0.3-0.6,0.6v6c0,0.3-0.3,0.6-0.6,0.6h-3.6
	C123.4,77.6,123.1,77.4,123.1,77"/>
<path class="st0" d="M75.8,60.1h-2.6h-1h-0.5v4l0,0v4.7V71l-1.3-1.8l0,0l-5.8-7.9v-0.1L64,60.4c-0.1-0.1-0.2-0.2-0.4-0.2h-3.8
	c-0.3,0-0.5,0.2-0.5,0.5v16.5c0,0.3,0.2,0.5,0.5,0.5h2.6h1h0.5v-0.5l0,0v-2.9V69v-2.2l5.9,8.1l0,0l1.8,2.5c0.1,0.1,0.2,0.2,0.4,0.2
	h3.8c0.3,0,0.5-0.2,0.5-0.5V60.6C76.3,60.3,76,60.1,75.8,60.1"/>
<path class="st0" d="M40.2,76.2L40.2,76.2l0.1,1.2h3.9c0,0,1.2-4.8,6.4-6.3C50.7,71.1,44.3,70.4,40.2,76.2"/>
<path class="st0" d="M57.3,76.8l-5.6-16.3c-0.1-0.2-0.3-0.4-0.6-0.4H46c-0.3,0-0.5,0.2-0.6,0.4l-5.6,16.3c-0.1,0.4,0.2,0.8,0.6,0.8
	h3.4c0.3,0,0.5-0.2,0.6-0.4l0.8-2.7l1-3.4l1.8-5.8c0.1-0.4,0.2-0.7,0.3-1.1s0.2-0.8,0.3-1.2c0.2,0.6,0.3,1.1,0.4,1.5
	c0.1,0.4,0.2,0.7,0.2,0.9l1.8,5.8l1,3.4l0.8,2.7l0,0l0.1,0.4h0.5h2h1.4C57.1,77.6,57.4,77.2,57.3,76.8"/>
<path class="st0" d="M39.2,76.8l-0.7-1L35,70.5c1.3-0.3,2.2-0.8,2.9-1.7s1-2,1-3.3c0-0.9-0.2-1.7-0.5-2.5c-0.3-0.7-0.8-1.4-1.4-1.8
	c-0.6-0.4-1.2-0.7-2-0.9S32.9,60,30.9,60h-3h-0.6h-0.8c-0.3,0-0.5,0.2-0.5,0.5v0.6v1v13.5v0.8v0.7c0,0.3,0.2,0.5,0.5,0.5H27h1h2.5
	v-6.9l4,6.9h2.1h2.1H39C39.2,77.6,39.4,77.2,39.2,76.8 M33.5,67.8c-0.5,0.4-1.2,0.5-2.2,0.5h-0.9v-4.6h1c1,0,1.8,0.2,2.2,0.6
	c0.4,0.4,0.7,1,0.7,1.9C34.2,66.9,34,67.5,33.5,67.8"/>
<path class="st0" d="M23,60.1H11.5c-0.3,0-0.5,0.2-0.5,0.6v3c0,0.3,0.2,0.6,0.5,0.6h1.8h1h0.5v0.6V66v9.5v1.7v0.6h0.5h0.6h3
	c0.3,0,0.5-0.2,0.5-0.6V64.8c0-0.3,0.2-0.6,0.5-0.6H23c0.3,0,0.5-0.2,0.5-0.6v-3C23.6,60.3,23.3,60.1,23,60.1"/>
<rect x="106.7" y="88.4" class="st1" width="32.3" height="0.6"/>
<rect x="11.3" y="88.4" class="st1" width="32.3" height="0.6"/>
<path class="st1" d="M68.9,88.9l-0.3-0.4l-1.5-2.2c0.5-0.1,0.9-0.4,1.2-0.7c0.3-0.4,0.4-0.8,0.4-1.4c0-0.4-0.1-0.7-0.2-1
	s-0.3-0.6-0.6-0.8c-0.2-0.2-0.5-0.3-0.8-0.4s-0.9-0.1-1.7-0.1h-1.3h-0.3h-0.3c-0.1,0-0.2,0.1-0.2,0.2v0.2v0.4v5.7v0.4v0.3
	c0,0.1,0.1,0.2,0.2,0.2h0.2h0.4h1.1v-2.9l1.7,2.9h0.9h0.9h0.1C68.9,89.3,69,89.1,68.9,88.9 M66.5,85.1c-0.2,0.1-0.5,0.2-1,0.2h-0.4
	v-2h0.4c0.4,0,0.8,0.1,0.9,0.2c0.2,0.2,0.3,0.4,0.3,0.8C66.8,84.8,66.7,85,66.5,85.1"/>
<path class="st1" d="M79.2,85.6c0,0.5-0.1,1-0.3,1.5c-0.2,0.5-0.5,0.9-0.9,1.3s-0.8,0.6-1.3,0.8c-0.5,0.2-1,0.3-1.5,0.3
	s-1-0.1-1.5-0.3c-0.5-0.2-0.9-0.5-1.3-0.8c-0.4-0.4-0.7-0.8-0.9-1.3c-0.2-0.5-0.3-1-0.3-1.5s0.1-1,0.3-1.5c0.2-0.5,0.5-0.9,0.9-1.3
	s0.8-0.6,1.3-0.8c0.5-0.2,1-0.3,1.5-0.3s1,0.1,1.5,0.3c0.5,0.2,0.9,0.5,1.3,0.8c0.4,0.4,0.7,0.8,0.9,1.3
	C79.1,84.5,79.2,85,79.2,85.6 M75.2,87.8c0.6,0,1-0.2,1.4-0.6s0.5-0.9,0.5-1.6c0-0.6-0.2-1.1-0.6-1.6c-0.4-0.4-0.8-0.6-1.4-0.6
	s-1,0.2-1.4,0.6s-0.5,0.9-0.5,1.6c0,0.6,0.2,1.2,0.5,1.6C74.2,87.6,74.7,87.8,75.2,87.8"/>
<path class="st1" d="M82.5,81.8H84c0.1,0,0.2,0.1,0.2,0.2v3.4c0,0.5,0,0.9,0,1.1s0.1,0.4,0.1,0.6c0.1,0.2,0.2,0.3,0.4,0.4
	c0.2,0.1,0.4,0.1,0.7,0.1s0.5,0,0.7-0.1s0.3-0.2,0.4-0.4c0.1-0.2,0.1-0.3,0.1-0.6c0-0.2,0-0.6,0-1.1V85v-2.9c0-0.1,0.1-0.2,0.2-0.2
	h1.5c0.1,0,0.2,0.1,0.2,0.2v3.7c0,0.8,0,1.4-0.1,1.8s-0.3,0.7-0.5,1c-0.3,0.3-0.6,0.5-1,0.7s-1,0.2-1.6,0.2s-1.2-0.1-1.6-0.2
	c-0.4-0.2-0.8-0.4-1-0.7c-0.2-0.3-0.4-0.6-0.5-1s-0.1-1-0.1-1.8V85v-2.9C82.2,82,82.3,81.8,82.5,81.8"/>
<path class="st1" d="M97.4,83.2c-0.1-0.3-0.4-0.6-0.6-0.8C96.6,82.2,96.3,82,96,82c-0.3-0.1-0.8-0.1-1.5-0.1l0,0h-2.1
	c-0.1,0-0.2,0.1-0.2,0.2v0.2v0.6v5.4V89v0c0,0.1,0.1,0.2,0.2,0.2h0.2h0.5H94v-2.5h0.4h0.3c0.6,0,1.1,0,1.4-0.1s0.5-0.2,0.7-0.4
	c0.3-0.2,0.5-0.5,0.6-0.8s0.2-0.7,0.2-1.2C97.6,84,97.6,83.6,97.4,83.2 M95.4,85c-0.2,0.1-0.5,0.2-1,0.2H94v-1.7h0.4
	c0.5,0,0.8,0.1,1,0.2s0.3,0.4,0.3,0.7C95.7,84.6,95.6,84.9,95.4,85"/>
<path class="st1" d="M60.2,85.1c0-0.1,0-0.1,0-0.2h-2l0,0h-1h-0.4h-0.3c-0.1,0-0.2,0.1-0.2,0.2v0.2v0.4v0.8h2
	c-0.1,0.3-0.2,0.5-0.4,0.7c0,0.1-0.1,0.1-0.2,0.2c-0.4,0.3-0.8,0.5-1.3,0.5c-0.3,0-0.6-0.1-0.8-0.2c-0.3-0.1-0.5-0.3-0.7-0.5
	c-0.1-0.1-0.1-0.1-0.2-0.2c-0.2-0.3-0.4-0.7-0.4-1.1l0,0c0-0.1,0-0.2,0-0.3c0-0.7,0.2-1.3,0.5-1.7c0.3-0.4,0.8-0.6,1.4-0.6
	c0.3,0,0.6,0.1,0.9,0.2c0.2,0.1,0.4,0.3,0.6,0.5c0.1,0.1,0.2,0.1,0.3,0.1l1.3-0.6c0.1-0.1,0.2-0.3,0.1-0.4c-0.3-0.4-0.8-0.8-1.2-1
	c-0.6-0.3-1.2-0.4-1.9-0.4c-0.6,0-1.1,0.1-1.6,0.3c-0.5,0.2-0.9,0.5-1.3,0.8c-0.4,0.4-0.7,0.8-0.8,1.3c-0.2,0.5-0.3,1-0.3,1.5
	s0.1,1,0.3,1.5s0.5,0.9,0.8,1.3c0.4,0.4,0.8,0.6,1.2,0.8c0.5,0.2,1,0.3,1.6,0.3c1.2,0,2.2-0.4,2.8-1.1c0.7-0.7,1-1.7,1-3
	C60.2,85.3,60.2,85.2,60.2,85.1"/>
</svg>
