<?xml version="1.0" encoding="utf-8"?>
<!-- Generator: Adobe Illustrator 21.1.0, SVG Export Plug-In . SVG Version: 6.00 Build 0)  -->
<svg version="1.1" id="Layer_1" xmlns="http://www.w3.org/2000/svg" xmlns:xlink="http://www.w3.org/1999/xlink" x="0px" y="0px"
	 width="40px" height="70px" viewBox="0 0 40 70" style="enable-background:new 0 0 40 70;" xml:space="preserve">
<style type="text/css">
	.st0{fill:#FFFFFF;}
</style>
<path class="st0" d="M20.4,63.8h-0.9c-7.9,0-14.3-6.4-14.3-14.3V20.6c0-7.9,6.4-14.3,14.3-14.3h0.9c7.9,0,14.3,6.4,14.3,14.3v28.9
	C34.8,57.3,28.3,63.8,20.4,63.8z M19.6,7.8c-7.1,0-12.8,5.7-12.8,12.8v28.9c0,7.1,5.7,12.8,12.8,12.8h0.9c7.1,0,12.8-5.7,12.8-12.8
	V20.6c0-7.1-5.7-12.8-12.8-12.8H19.6z"/>
</svg>
