<?xml version="1.0" encoding="utf-8"?>
<!-- Generator: Adobe Illustrator 21.1.0, SVG Export Plug-In . SVG Version: 6.00 Build 0)  -->
<svg version="1.1" id="Layer_1" xmlns="http://www.w3.org/2000/svg" xmlns:xlink="http://www.w3.org/1999/xlink" x="0px" y="0px"
	 width="670px" height="100px" viewBox="0 0 670 100" style="enable-background:new 0 0 670 100;" xml:space="preserve">
<style type="text/css">
	.st0{opacity:0.5;}
	.st1{fill:#FFFFFF;}
</style>
<g class="st0">
	<path d="M4.3,37.4h2.6l15,25.9V37.4h2.6v31.5h-2.4L6.9,42.7v26.2H4.3V37.4z"/>
	<path d="M60.4,42.7c2.5,2.9,3.8,6.4,3.8,10.4c0,4.5-1.6,8.3-4.7,11.4c-3.2,3.1-7,4.7-11.4,4.7c-4.5,0-8.3-1.6-11.4-4.7
		c-3.1-3.1-4.7-6.9-4.7-11.4s1.6-8.3,4.7-11.4c3.1-3.1,6.9-4.7,11.4-4.7s8.3,1.6,11.4,4.7c0.1,0.1,0.2,0.2,0.3,0.3l1.2-4.6h2.7
		l-2.6,5.3C61.1,42.7,60.4,42.7,60.4,42.7z M48,39.6c-3.7,0-6.9,1.3-9.5,3.9c-2.6,2.6-3.9,5.8-3.9,9.5s1.3,6.9,3.9,9.5
		c2.6,2.6,5.8,4,9.5,4s6.9-1.3,9.5-4c2.6-2.6,3.9-5.8,3.9-9.5s-1.3-6.9-3.9-9.5C54.9,40.9,51.7,39.6,48,39.6z"/>
	<path d="M74.6,37.4v31.5H72V37.4H74.6z"/>
	<path d="M124.1,62.9l2,1.8c-3.3,3-7,4.5-11.2,4.5c-4.4,0-8.2-1.6-11.4-4.7c-3.1-3.1-4.7-6.9-4.7-11.4c0-4.4,1.6-8.2,4.7-11.4
		c3.1-3.1,6.9-4.7,11.4-4.7c4.2,0,7.9,1.5,11.2,4.5l-2,1.8c-2.7-2.4-5.8-3.7-9.2-3.7c-3.7,0-6.8,1.3-9.5,3.9
		c-2.6,2.6-3.9,5.8-3.9,9.5s1.3,6.9,3.9,9.5c2.6,2.6,5.8,3.9,9.5,3.9C118.3,66.6,121.4,65.4,124.1,62.9z"/>
	<path d="M151.2,37.4h2.6v22.4c-0.3,2.5-1.3,4.5-3.1,6.2c-2,2-4.5,3-7.4,3s-5.4-1-7.4-3.1c-2-2-3-4.5-3-7.4V37.4h2.7v21.3
		c0,2.1,0.8,4,2.3,5.5c1.5,1.5,3.4,2.3,5.5,2.3c2.2,0,4-0.8,5.5-2.3c1.5-1.5,2.3-3.3,2.3-5.5L151.2,37.4L151.2,37.4z"/>
	<path d="M188.8,41.7c3.2,3.1,4.7,6.9,4.7,11.4s-1.6,8.3-4.7,11.4c-3.2,3.1-7,4.7-11.4,4.7c-4.5,0-8.3-1.6-11.4-4.7
		c-3.1-3.1-4.7-6.9-4.7-11.4s1.6-8.3,4.7-11.4c3.1-3.1,6.9-4.7,11.4-4.7C181.8,37,185.6,38.6,188.8,41.7z M177.3,39.6
		c-3.7,0-6.9,1.3-9.5,3.9c-2.6,2.6-3.9,5.8-3.9,9.5s1.3,6.9,3.9,9.5c2.6,2.6,5.8,4,9.5,4s6.9-1.3,9.5-4c2.6-2.6,3.9-5.8,3.9-9.5
		s-1.3-6.9-3.9-9.5C184.2,40.9,181.1,39.6,177.3,39.6z M178.5,29.8l5.5,5.4h-3.3l-3.4-2.6l-3.2,2.6h-3.2l5.2-5.4H178.5z M178.9,71.4
		c0.4,0.4,0.6,0.9,0.6,1.5s-0.2,1.1-0.6,1.5c-0.4,0.4-0.9,0.6-1.5,0.6s-1.1-0.2-1.5-0.6s-0.6-0.9-0.6-1.5s0.2-1.1,0.6-1.5
		c0.4-0.4,0.9-0.6,1.5-0.6S178.5,71,178.9,71.4z"/>
	<path d="M225.7,62.9l2,1.8c-3.3,3-7,4.5-11.2,4.5c-4.4,0-8.2-1.6-11.4-4.7c-3.1-3.1-4.7-6.9-4.7-11.4c0-4.4,1.6-8.2,4.7-11.4
		c3.1-3.1,6.9-4.7,11.4-4.7c4.2,0,7.9,1.5,11.2,4.5l-2,1.8c-2.7-2.4-5.8-3.7-9.2-3.7c-3.7,0-6.8,1.3-9.5,3.9
		c-2.6,2.6-3.9,5.8-3.9,9.5s1.3,6.9,3.9,9.5c2.6,2.6,5.8,3.9,9.5,3.9C219.9,66.6,222.9,65.4,225.7,62.9z"/>
	<path d="M258.7,51.9c-2.2-0.7-4-1.8-5.4-3.1c-1.3-1.3-2-3-2-4.9s0.7-3.5,2-4.9s3-2,4.9-2s3.5,0.7,4.9,2c0.8,0.7,1.3,1.7,1.7,2.9
		l-2.4,0.9c-0.3-0.8-0.7-1.5-1.2-2c-0.8-0.8-1.8-1.2-3-1.2s-2.2,0.4-3,1.3c-0.8,0.8-1.3,1.9-1.3,3.1c0,1.2,0.4,2.2,1.3,3
		c0.8,0.8,2,1.6,3.4,2.2c2.5,0.8,4.6,2.1,6.3,3.8c1.9,1.8,2.8,4.1,2.8,6.7c0,2.6-0.9,4.9-2.8,6.7c-1.9,1.9-4.1,2.8-6.7,2.8
		s-4.9-0.9-6.7-2.8c-1.5-1.5-2.4-3.3-2.7-5.5l2.5-0.9c0.2,1.9,0.9,3.5,2.1,4.6c1.4,1.4,3,2,4.9,2s3.5-0.7,4.9-2c1.3-1.3,2-3,2-4.9
		s-0.7-3.5-2-4.9C262,53.6,260.5,52.7,258.7,51.9z"/>
	<path d="M300.6,41.7c3.2,3.1,4.7,6.9,4.7,11.4s-1.6,8.3-4.7,11.4c-3.2,3.1-7,4.7-11.4,4.7c-4.5,0-8.3-1.6-11.4-4.7
		c-3.1-3.1-4.7-6.9-4.7-11.4s1.6-8.3,4.7-11.4c3.1-3.1,6.9-4.7,11.4-4.7C293.7,37,297.5,38.6,300.6,41.7z M289.2,39.6
		c-3.7,0-6.9,1.3-9.5,3.9c-2.6,2.6-3.9,5.8-3.9,9.5s1.3,6.9,3.9,9.5c2.6,2.6,5.8,4,9.5,4s6.9-1.3,9.5-4c2.6-2.6,3.9-5.8,3.9-9.5
		s-1.3-6.9-3.9-9.5C296.1,40.9,293,39.6,289.2,39.6z M290.4,29.8l5.5,5.4h-3.3l-3.4-2.6l-3.2,2.6h-3.2l5.2-5.4H290.4z M300.8,26.1
		l-5.9,4.5h-2.8l3.9-4.5H300.8z"/>
	<path d="M312.8,37.4h2.6l15,25.9V37.4h2.6v31.5h-2.4l-15.1-26.2v26.2h-2.6V37.4H312.8z"/>
	<path d="M367.3,64.8c-3.1,2.9-6.7,4.4-10.9,4.4c-4.4,0-8.2-1.6-11.4-4.7c-3.1-3.1-4.7-6.9-4.7-11.4c0-4.4,1.6-8.2,4.7-11.4
		c3.1-3.1,6.9-4.7,11.4-4.7c4.2,0,7.9,1.5,11.2,4.5l-2,1.8c-2.7-2.4-5.8-3.7-9.2-3.7c-3.7,0-6.8,1.3-9.5,3.9
		c-2.6,2.6-3.9,5.8-3.9,9.5s1.3,6.9,3.9,9.5c2.6,2.6,5.8,3.9,9.5,3.9c3.2,0,5.9-0.9,8.2-2.8v-9.5h2.6L367.3,64.8L367.3,64.8z"/>
	<path d="M399.7,40v28.9h-2.6V40h-7.7v-2.6h18.1V40H399.7z"/>
	<path d="M440.3,41.7c3.2,3.1,4.7,6.9,4.7,11.4s-1.6,8.3-4.7,11.4c-3.2,3.1-7,4.7-11.4,4.7c-4.5,0-8.3-1.6-11.4-4.7
		c-3.1-3.1-4.7-6.9-4.7-11.4s1.6-8.3,4.7-11.4c3.1-3.1,6.9-4.7,11.4-4.7C433.4,37,437.2,38.6,440.3,41.7z M428.9,39.6
		c-3.7,0-6.9,1.3-9.5,3.9c-2.6,2.6-3.9,5.8-3.9,9.5s1.3,6.9,3.9,9.5c2.6,2.6,5.8,4,9.5,4s6.9-1.3,9.5-4c2.6-2.6,3.9-5.8,3.9-9.5
		s-1.3-6.9-3.9-9.5C435.8,40.9,432.6,39.6,428.9,39.6z M430,29.8l5.5,5.4h-3.3l-3.4-2.6l-3.2,2.6h-3.2l5.2-5.4H430z M440.5,26.1
		l-5.9,4.5h-2.7l3.9-4.5H440.5z"/>
	<path d="M460.7,40v28.9h-2.6V40h-7.7v-2.6h18.1V40H460.7z"/>
	<path d="M491.7,51.8V37.4h2.6l0,0H494c5.2,0,9.2,1.4,12,4.3c3.1,3.2,4.7,6.9,4.7,11.4s-1.6,8.2-4.7,11.4c-2.8,2.9-6.9,4.3-12,4.3
		h0.3l0,0h-2.6V54.4h-3v-2.6H491.7z M494.3,51.8h7.1v2.6h-7.1v11.7c4.2,0,7.5-1.2,9.8-3.5c2.6-2.6,3.9-5.8,3.9-9.5s-1.3-6.9-3.9-9.5
		c-2.3-2.4-5.6-3.5-9.8-3.5V51.8z"/>
	<path d="M534.3,37.4V40h-13.5v11.8h13.5v2.6h-13.5v11.8h13.5v2.7h-16.2V37.4H534.3z M527.7,71.4c0.4,0.4,0.6,0.9,0.6,1.5
		s-0.2,1.1-0.6,1.5c-0.4,0.4-0.9,0.6-1.5,0.6s-1.1-0.2-1.5-0.6s-0.6-0.9-0.6-1.5s0.2-1.1,0.6-1.5c0.4-0.4,0.9-0.6,1.5-0.6
		S527.3,71,527.7,71.4z"/>
	<path d="M544.3,58.3v10.6h-2.6V37.4h8.5c2.4,0.3,4.5,1.3,6.2,3c2,2,3,4.5,3,7.4s-1,5.4-3,7.4s-4.5,3-7.4,3L544.3,58.3L544.3,58.3z
		 M544.3,40.1v15.6h4.7c2.1,0,4-0.8,5.5-2.3s2.3-3.4,2.3-5.5s-0.8-4-2.3-5.5s-3.4-2.3-5.5-2.3C549,40.1,544.3,40.1,544.3,40.1z"/>
	<path d="M584.5,55.2v13.7h-2.6V37.4h2.6v15.1h11.9V37.4h2.6v31.5h-2.6V55.2H584.5z"/>
	<path d="M634.8,42.7c2.5,2.9,3.8,6.4,3.8,10.4c0,4.5-1.6,8.3-4.7,11.4c-3.2,3.1-7,4.7-11.4,4.7c-4.5,0-8.3-1.6-11.4-4.7
		c-3.1-3.1-4.7-6.9-4.7-11.4s1.6-8.3,4.7-11.4c3.1-3.1,6.9-4.7,11.4-4.7s8.3,1.6,11.4,4.7c0.1,0.1,0.2,0.2,0.3,0.3l1.2-4.6h2.7
		l-2.6,5.3C635.5,42.7,634.8,42.7,634.8,42.7z M622.5,39.6c-3.7,0-6.9,1.3-9.5,3.9c-2.6,2.6-3.9,5.8-3.9,9.5s1.3,6.9,3.9,9.5
		c2.6,2.6,5.8,4,9.5,4s6.9-1.3,9.5-4c2.6-2.6,3.9-5.8,3.9-9.5s-1.3-6.9-3.9-9.5C629.4,40.9,626.2,39.6,622.5,39.6z"/>
	<path d="M646,37.4h2.6l15,25.9V37.4h2.6v31.5h-2.4l-15.1-26.2v26.2h-2.6L646,37.4L646,37.4z"/>
</g>
<g>
	<path class="st1" d="M3.4,36.5H6l15,25.9V36.5h2.6V68h-2.4L6,41.8V68H3.4V36.5z"/>
	<path class="st1" d="M59.5,41.8c2.5,2.9,3.8,6.4,3.8,10.4c0,4.5-1.6,8.3-4.7,11.4c-3.2,3.1-7,4.7-11.4,4.7c-4.5,0-8.3-1.6-11.4-4.7
		c-3.1-3.1-4.7-6.9-4.7-11.4s1.6-8.3,4.7-11.4c3.1-3.1,6.9-4.7,11.4-4.7s8.3,1.6,11.4,4.7c0.1,0.1,0.2,0.2,0.3,0.3l1.2-4.6h2.7
		l-2.6,5.3C60.2,41.8,59.5,41.8,59.5,41.8z M47.1,38.7c-3.7,0-6.9,1.3-9.5,3.9c-2.6,2.6-3.9,5.8-3.9,9.5s1.3,6.9,3.9,9.5
		c2.6,2.6,5.8,4,9.5,4s6.9-1.3,9.5-4c2.6-2.6,3.9-5.8,3.9-9.5s-1.3-6.9-3.9-9.5C54,40,50.8,38.7,47.1,38.7z"/>
	<path class="st1" d="M73.7,36.5V68h-2.6V36.5H73.7z"/>
	<path class="st1" d="M123.2,62l2,1.8c-3.3,3-7,4.5-11.2,4.5c-4.4,0-8.2-1.6-11.4-4.7c-3.1-3.1-4.7-6.9-4.7-11.4
		c0-4.4,1.6-8.2,4.7-11.4c3.1-3.1,6.9-4.7,11.4-4.7c4.2,0,7.9,1.5,11.2,4.5l-2,1.8c-2.7-2.4-5.8-3.7-9.2-3.7c-3.7,0-6.8,1.3-9.5,3.9
		c-2.6,2.6-3.9,5.8-3.9,9.5s1.3,6.9,3.9,9.5c2.6,2.6,5.8,3.9,9.5,3.9C117.4,65.7,120.5,64.5,123.2,62z"/>
	<path class="st1" d="M150.3,36.5h2.6v22.4c-0.3,2.5-1.3,4.5-3.1,6.2c-2,2-4.5,3-7.4,3s-5.4-1-7.4-3.1c-2-2-3-4.5-3-7.4V36.5h2.7
		v21.3c0,2.1,0.8,4,2.3,5.5c1.5,1.5,3.4,2.3,5.5,2.3c2.2,0,4-0.8,5.5-2.3c1.5-1.5,2.3-3.3,2.3-5.5L150.3,36.5L150.3,36.5z"/>
	<path class="st1" d="M187.9,40.8c3.2,3.1,4.7,6.9,4.7,11.4s-1.6,8.3-4.7,11.4c-3.2,3.1-7,4.7-11.4,4.7c-4.5,0-8.3-1.6-11.4-4.7
		c-3.1-3.1-4.7-6.9-4.7-11.4s1.6-8.3,4.7-11.4c3.1-3.1,6.9-4.7,11.4-4.7C180.9,36.1,184.7,37.7,187.9,40.8z M176.4,38.7
		c-3.7,0-6.9,1.3-9.5,3.9c-2.6,2.6-3.9,5.8-3.9,9.5s1.3,6.9,3.9,9.5c2.6,2.6,5.8,4,9.5,4s6.9-1.3,9.5-4c2.6-2.6,3.9-5.8,3.9-9.5
		s-1.3-6.9-3.9-9.5C183.3,40,180.2,38.7,176.4,38.7z M177.6,28.9l5.5,5.4h-3.3l-3.4-2.6l-3.2,2.6H170l5.2-5.4H177.6z M178,70.5
		c0.4,0.4,0.6,0.9,0.6,1.5s-0.2,1.1-0.6,1.5c-0.4,0.4-0.9,0.6-1.5,0.6s-1.1-0.2-1.5-0.6s-0.6-0.9-0.6-1.5s0.2-1.1,0.6-1.5
		c0.4-0.4,0.9-0.6,1.5-0.6S177.6,70.1,178,70.5z"/>
	<path class="st1" d="M224.8,62l2,1.8c-3.3,3-7,4.5-11.2,4.5c-4.4,0-8.2-1.6-11.4-4.7c-3.1-3.1-4.7-6.9-4.7-11.4
		c0-4.4,1.6-8.2,4.7-11.4c3.1-3.1,6.9-4.7,11.4-4.7c4.2,0,7.9,1.5,11.2,4.5l-2,1.8c-2.7-2.4-5.8-3.7-9.2-3.7c-3.7,0-6.8,1.3-9.5,3.9
		c-2.6,2.6-3.9,5.8-3.9,9.5s1.3,6.9,3.9,9.5c2.6,2.6,5.8,3.9,9.5,3.9C219,65.7,222,64.5,224.8,62z"/>
	<path class="st1" d="M257.8,51c-2.2-0.7-4-1.8-5.4-3.1c-1.3-1.3-2-3-2-4.9s0.7-3.5,2-4.9s3-2,4.9-2s3.5,0.7,4.9,2
		c0.8,0.7,1.3,1.7,1.7,2.9l-2.4,0.9c-0.3-0.8-0.7-1.5-1.2-2c-0.8-0.8-1.8-1.2-3-1.2s-2.2,0.4-3,1.3c-0.8,0.8-1.3,1.9-1.3,3.1
		c0,1.2,0.4,2.2,1.3,3c0.8,0.8,2,1.6,3.4,2.2c2.5,0.8,4.6,2.1,6.3,3.8c1.9,1.8,2.8,4.1,2.8,6.7c0,2.6-0.9,4.9-2.8,6.7
		c-1.9,1.9-4.1,2.8-6.7,2.8s-4.9-0.9-6.7-2.8c-1.5-1.5-2.4-3.3-2.7-5.5l2.5-0.9c0.2,1.9,0.9,3.5,2.1,4.6c1.4,1.4,3,2,4.9,2
		s3.5-0.7,4.9-2c1.3-1.3,2-3,2-4.9s-0.7-3.5-2-4.9C261.1,52.7,259.6,51.8,257.8,51z"/>
	<path class="st1" d="M299.7,40.8c3.2,3.1,4.7,6.9,4.7,11.4s-1.6,8.3-4.7,11.4c-3.2,3.1-7,4.7-11.4,4.7c-4.5,0-8.3-1.6-11.4-4.7
		c-3.1-3.1-4.7-6.9-4.7-11.4s1.6-8.3,4.7-11.4c3.1-3.1,6.9-4.7,11.4-4.7C292.8,36.1,296.6,37.7,299.7,40.8z M288.3,38.7
		c-3.7,0-6.9,1.3-9.5,3.9c-2.6,2.6-3.9,5.8-3.9,9.5s1.3,6.9,3.9,9.5c2.6,2.6,5.8,4,9.5,4s6.9-1.3,9.5-4c2.6-2.6,3.9-5.8,3.9-9.5
		s-1.3-6.9-3.9-9.5C295.2,40,292.1,38.7,288.3,38.7z M289.5,28.9l5.5,5.4h-3.3l-3.4-2.6l-3.2,2.6h-3.2l5.2-5.4H289.5z M299.9,25.2
		l-5.9,4.5h-2.8l3.9-4.5H299.9z"/>
	<path class="st1" d="M311.9,36.5h2.6l15,25.9V36.5h2.6V68h-2.4l-15.1-26.2V68H312V36.5H311.9z"/>
	<path class="st1" d="M366.4,63.9c-3.1,2.9-6.7,4.4-10.9,4.4c-4.4,0-8.2-1.6-11.4-4.7c-3.1-3.1-4.7-6.9-4.7-11.4
		c0-4.4,1.6-8.2,4.7-11.4c3.1-3.1,6.9-4.7,11.4-4.7c4.2,0,7.9,1.5,11.2,4.5l-2,1.8c-2.7-2.4-5.8-3.7-9.2-3.7c-3.7,0-6.8,1.3-9.5,3.9
		c-2.6,2.6-3.9,5.8-3.9,9.5s1.3,6.9,3.9,9.5c2.6,2.6,5.8,3.9,9.5,3.9c3.2,0,5.9-0.9,8.2-2.8v-9.5h2.6L366.4,63.9L366.4,63.9z"/>
	<path class="st1" d="M398.8,39.1V68h-2.6V39.1h-7.7v-2.6h18.1v2.6H398.8z"/>
	<path class="st1" d="M439.4,40.8c3.2,3.1,4.7,6.9,4.7,11.4s-1.6,8.3-4.7,11.4c-3.2,3.1-7,4.7-11.4,4.7c-4.5,0-8.3-1.6-11.4-4.7
		c-3.1-3.1-4.7-6.9-4.7-11.4s1.6-8.3,4.7-11.4c3.1-3.1,6.9-4.7,11.4-4.7C432.5,36.1,436.3,37.7,439.4,40.8z M428,38.7
		c-3.7,0-6.9,1.3-9.5,3.9c-2.6,2.6-3.9,5.8-3.9,9.5s1.3,6.9,3.9,9.5c2.6,2.6,5.8,4,9.5,4s6.9-1.3,9.5-4c2.6-2.6,3.9-5.8,3.9-9.5
		s-1.3-6.9-3.9-9.5C434.9,40,431.7,38.7,428,38.7z M429.1,28.9l5.5,5.4h-3.3l-3.4-2.6l-3.2,2.6h-3.2l5.2-5.4H429.1z M439.6,25.2
		l-5.9,4.5H431l3.9-4.5H439.6z"/>
	<path class="st1" d="M459.8,39.1V68h-2.6V39.1h-7.7v-2.6h18.1v2.6H459.8z"/>
	<path class="st1" d="M490.8,50.9V36.5h2.6l0,0h-0.3c5.2,0,9.2,1.4,12,4.3c3.1,3.2,4.7,6.9,4.7,11.4s-1.6,8.2-4.7,11.4
		c-2.8,2.9-6.9,4.3-12,4.3h0.3l0,0h-2.6V53.5h-3v-2.6H490.8z M493.4,50.9h7.1v2.6h-7.1v11.7c4.2,0,7.5-1.2,9.8-3.5
		c2.6-2.6,3.9-5.8,3.9-9.5s-1.3-6.9-3.9-9.5c-2.3-2.4-5.6-3.5-9.8-3.5V50.9z"/>
	<path class="st1" d="M533.4,36.5v2.6h-13.5v11.8h13.5v2.6h-13.5v11.8h13.5V68h-16.2V36.5H533.4z M526.8,70.5
		c0.4,0.4,0.6,0.9,0.6,1.5s-0.2,1.1-0.6,1.5c-0.4,0.4-0.9,0.6-1.5,0.6s-1.1-0.2-1.5-0.6s-0.6-0.9-0.6-1.5s0.2-1.1,0.6-1.5
		c0.4-0.4,0.9-0.6,1.5-0.6S526.4,70.1,526.8,70.5z"/>
	<path class="st1" d="M543.4,57.4V68h-2.6V36.5h8.5c2.4,0.3,4.5,1.3,6.2,3c2,2,3,4.5,3,7.4s-1,5.4-3,7.4s-4.5,3-7.4,3L543.4,57.4
		L543.4,57.4z M543.4,39.2v15.6h4.7c2.1,0,4-0.8,5.5-2.3s2.3-3.4,2.3-5.5s-0.8-4-2.3-5.5s-3.4-2.3-5.5-2.3
		C548.1,39.2,543.4,39.2,543.4,39.2z"/>
	<path class="st1" d="M583.6,54.3V68H581V36.5h2.6v15.1h11.9V36.5h2.6V68h-2.6V54.3H583.6z"/>
	<path class="st1" d="M633.9,41.8c2.5,2.9,3.8,6.4,3.8,10.4c0,4.5-1.6,8.3-4.7,11.4c-3.2,3.1-7,4.7-11.4,4.7
		c-4.5,0-8.3-1.6-11.4-4.7c-3.1-3.1-4.7-6.9-4.7-11.4s1.6-8.3,4.7-11.4c3.1-3.1,6.9-4.7,11.4-4.7s8.3,1.6,11.4,4.7
		c0.1,0.1,0.2,0.2,0.3,0.3l1.2-4.6h2.7l-2.6,5.3C634.6,41.8,633.9,41.8,633.9,41.8z M621.6,38.7c-3.7,0-6.9,1.3-9.5,3.9
		c-2.6,2.6-3.9,5.8-3.9,9.5s1.3,6.9,3.9,9.5c2.6,2.6,5.8,4,9.5,4s6.9-1.3,9.5-4c2.6-2.6,3.9-5.8,3.9-9.5s-1.3-6.9-3.9-9.5
		C628.5,40,625.3,38.7,621.6,38.7z"/>
	<path class="st1" d="M645.1,36.5h2.6l15,25.9V36.5h2.6V68h-2.4l-15.1-26.2V68h-2.6L645.1,36.5L645.1,36.5z"/>
</g>
</svg>
