<?xml version="1.0" encoding="utf-8"?>
<!-- Generator: Adobe Illustrator 21.1.0, SVG Export Plug-In . SVG Version: 6.00 Build 0)  -->
<svg version="1.1" id="Layer_1" xmlns="http://www.w3.org/2000/svg" xmlns:xlink="http://www.w3.org/1999/xlink" x="0px" y="0px"
	 width="150px" height="100px" viewBox="0 0 150 100" style="enable-background:new 0 0 150 100;" xml:space="preserve">
<style type="text/css">
	.st0{fill:#004834;}
	.st1{fill:#AB5210;}
</style>
<polygon class="st0" points="74.4,1 54.2,12.7 54.2,36.1 74.4,47.9 74.4,41 60.2,32.7 60.2,16.2 68.5,11.3 68.5,29.4 74.4,32.8 
	74.4,8 74.3,8 74.4,7.9 "/>
<polygon class="st0" points="75.6,1 75.6,7.9 75.7,8 75.6,8 75.6,32.8 81.5,29.4 81.5,11.3 89.8,16.2 89.8,32.7 75.6,41 75.6,47.9 
	95.8,36.1 95.8,12.7 "/>
<path class="st0" d="M83.4,70.2L83.4,70.2l0.1,1.2h3.9c0,0,1.2-4.8,6.4-6.3C93.8,65.1,87.4,64.4,83.4,70.2"/>
<path class="st0" d="M100.4,70.8l-5.6-16.3c-0.1-0.2-0.3-0.4-0.6-0.4h-5.1c-0.3,0-0.5,0.2-0.6,0.4l-5.6,16.3
	c-0.1,0.4,0.2,0.8,0.6,0.8h3.4c0.3,0,0.5-0.2,0.6-0.4l0.8-2.7l1-3.4l1.8-5.8c0.1-0.4,0.2-0.7,0.3-1.1c0.1-0.4,0.2-0.8,0.3-1.2
	c0.2,0.6,0.3,1.1,0.4,1.5s0.2,0.7,0.2,0.9l1.8,5.8l1,3.4l0.8,2.7l0,0l0.1,0.4h0.5h2h1.4C100.2,71.6,100.5,71.2,100.4,70.8"/>
<path class="st0" d="M102.3,71.6V54.1h4.6l6.6,9c0.1,0.2,0.3,0.6,0.6,1.1c0.3,0.6,0.6,1.2,1,2c-0.1-0.7-0.2-1.4-0.2-1.9
	c0-0.6-0.1-1.1-0.1-1.5v-8.7h4.6v17.5h-4.6l-6.6-9.1c-0.1-0.2-0.3-0.6-0.6-1.1c-0.3-0.6-0.6-1.2-0.9-2c0.1,0.7,0.2,1.4,0.2,2
	s0.1,1.1,0.1,1.5v8.7L102.3,71.6L102.3,71.6z"/>
<path class="st0" d="M123.1,71V54.6c0-0.3,0.3-0.6,0.6-0.6h3.6c0.3,0,0.6,0.3,0.6,0.6v5.7c0,0.3,0.3,0.6,0.6,0.6h5.2
	c0.3,0,0.6-0.3,0.6-0.6v-5.7c0-0.3,0.3-0.6,0.6-0.6h3.6c0.3,0,0.6,0.3,0.6,0.6V71c0,0.3-0.3,0.6-0.6,0.6h-3.6
	c-0.3,0-0.6-0.3-0.6-0.6v-6c0-0.3-0.3-0.6-0.6-0.6h-5.2c-0.3,0-0.6,0.3-0.6,0.6v6c0,0.3-0.3,0.6-0.6,0.6h-3.6
	C123.4,71.6,123.1,71.4,123.1,71"/>
<path class="st0" d="M75.8,54.1h-2.6h-1h-0.5v4l0,0v4.7V65l-1.3-1.8l0,0l-5.8-7.9v-0.1L64,54.4c-0.1-0.1-0.2-0.2-0.4-0.2h-3.8
	c-0.3,0-0.5,0.2-0.5,0.5v16.5c0,0.3,0.2,0.5,0.5,0.5h2.6h1h0.5v-0.5l0,0v-2.9V63v-2.2l5.9,8.1l0,0l1.8,2.5c0.1,0.1,0.2,0.2,0.4,0.2
	h3.8c0.3,0,0.5-0.2,0.5-0.5V54.6C76.3,54.3,76,54.1,75.8,54.1"/>
<path class="st0" d="M40.2,70.2L40.2,70.2l0.1,1.2h3.9c0,0,1.2-4.8,6.4-6.3C50.7,65.1,44.3,64.4,40.2,70.2"/>
<path class="st0" d="M57.3,70.8l-5.6-16.3c-0.1-0.2-0.3-0.4-0.6-0.4H46c-0.3,0-0.5,0.2-0.6,0.4l-5.6,16.3c-0.1,0.4,0.2,0.8,0.6,0.8
	h3.4c0.3,0,0.5-0.2,0.6-0.4l0.8-2.7l1-3.4l1.8-5.8c0.1-0.4,0.2-0.7,0.3-1.1c0.1-0.4,0.2-0.8,0.3-1.2c0.2,0.6,0.3,1.1,0.4,1.5
	c0.1,0.4,0.2,0.7,0.2,0.9l1.8,5.8l1,3.4l0.8,2.7l0,0l0.1,0.4h0.5h2h1.4C57.1,71.6,57.4,71.2,57.3,70.8"/>
<path class="st0" d="M39.2,70.8l-0.7-1L35,64.5c1.3-0.3,2.2-0.8,2.9-1.7s1-2,1-3.3c0-0.9-0.2-1.7-0.5-2.5c-0.3-0.7-0.8-1.4-1.4-1.8
	c-0.6-0.4-1.2-0.7-2-0.9S32.9,54,30.9,54h-3h-0.6h-0.8c-0.3,0-0.5,0.2-0.5,0.5v0.6v1v13.5v0.8v0.7c0,0.3,0.2,0.5,0.5,0.5H27h1h2.5
	v-6.9l4,6.9h2.1h2.1H39C39.2,71.6,39.4,71.2,39.2,70.8 M33.5,61.8c-0.5,0.4-1.2,0.5-2.2,0.5h-0.9v-4.6h1c1,0,1.8,0.2,2.2,0.6
	c0.4,0.4,0.7,1,0.7,1.9C34.2,60.9,34,61.5,33.5,61.8"/>
<path class="st0" d="M23,54.1H11.5c-0.3,0-0.5,0.2-0.5,0.6v3c0,0.3,0.2,0.6,0.5,0.6h1.8h1h0.5v0.6V60v9.5v1.7v0.6h0.5h0.6h3
	c0.3,0,0.5-0.2,0.5-0.6V58.8c0-0.3,0.2-0.6,0.5-0.6H23c0.3,0,0.5-0.2,0.5-0.6v-3C23.6,54.3,23.3,54.1,23,54.1"/>
<rect x="106.7" y="82.4" class="st1" width="32.3" height="0.6"/>
<rect x="11.3" y="82.4" class="st1" width="32.3" height="0.6"/>
<polygon class="st0" points="11.3,91.8 11.8,91.8 14.7,96.7 14.7,91.8 15.2,91.8 15.2,97.8 14.7,97.8 11.8,92.8 11.8,97.8 
	11.3,97.8 "/>
<path class="st0" d="M22,92.8c0.5,0.6,0.7,1.2,0.7,2c0,0.9-0.3,1.6-0.9,2.2s-1.3,0.9-2.2,0.9c-0.8,0-1.6-0.3-2.2-0.9
	s-0.9-1.3-0.9-2.2c0-0.9,0.3-1.6,0.9-2.2s1.3-0.9,2.2-0.9c0.8,0,1.6,0.3,2.2,0.9C21.8,92.6,21.8,92.6,22,92.8l0.1-1h0.5l-0.5,1H22
	L22,92.8z M19.7,92.2c-0.7,0-1.3,0.3-1.8,0.8s-0.8,1.1-0.8,1.8c0,0.7,0.3,1.3,0.8,1.8s1.1,0.8,1.8,0.8c0.7,0,1.3-0.3,1.8-0.8
	s0.8-1.1,0.8-1.8c0-0.7-0.3-1.3-0.8-1.8C21,92.4,20.4,92.2,19.7,92.2"/>
<rect x="24.2" y="91.8" class="st0" width="0.5" height="6"/>
<path class="st0" d="M34.2,96.7l0.4,0.3c-0.6,0.6-1.3,0.9-2.1,0.9s-1.6-0.3-2.2-0.9s-0.9-1.3-0.9-2.2c0-0.9,0.3-1.6,0.9-2.2
	s1.3-0.9,2.2-0.9c0.8,0,1.5,0.3,2.1,0.9l-0.4,0.3c-0.5-0.5-1.1-0.7-1.8-0.7s-1.3,0.3-1.8,0.8s-0.7,1.1-0.7,1.8
	c0,0.7,0.2,1.3,0.7,1.8s1.1,0.8,1.8,0.8C33.1,97.4,33.7,97.1,34.2,96.7"/>
<path class="st0" d="M39.3,91.8h0.5v4.3c-0.1,0.5-0.3,0.9-0.6,1.2c-0.4,0.4-0.9,0.6-1.4,0.6c-0.6,0-1-0.2-1.4-0.6s-0.6-0.9-0.6-1.4
	v-4.1h0.5v4.1c0,0.4,0.1,0.8,0.4,1.1c0.3,0.3,0.6,0.4,1,0.4s0.8-0.1,1.1-0.4s0.4-0.6,0.4-1.1C39.3,95.9,39.3,91.8,39.3,91.8z"/>
<path class="st0" d="M46.5,92.6c0.6,0.6,0.9,1.3,0.9,2.2s-0.3,1.6-0.9,2.2c-0.6,0.6-1.3,0.9-2.2,0.9c-0.8,0-1.6-0.3-2.2-0.9
	c-0.6-0.6-0.9-1.3-0.9-2.2s0.3-1.6,0.9-2.2c0.6-0.6,1.3-0.9,2.2-0.9S45.9,92,46.5,92.6 M44.3,92.2c-0.7,0-1.3,0.3-1.8,0.8
	s-0.8,1.1-0.8,1.8s0.3,1.3,0.8,1.8s1.1,0.8,1.8,0.8s1.3-0.3,1.8-0.8s0.8-1.1,0.8-1.8s-0.3-1.3-0.8-1.8C45.7,92.4,45,92.2,44.3,92.2
	 M44.5,90.3l1,1H45l-0.6-0.5l-0.6,0.5h-0.6l1-1H44.5z M44.6,98.3c0.1,0.1,0.1,0.2,0.1,0.3c0,0.1,0,0.2-0.1,0.3
	c0,0.1-0.1,0.1-0.3,0.1c-0.1,0-0.2,0-0.3-0.1s-0.1-0.2-0.1-0.3c0-0.1,0-0.2,0.1-0.3c0.1-0.1,0.2-0.1,0.3-0.1
	C44.5,98.2,44.6,98.2,44.6,98.3"/>
<path class="st0" d="M53.6,96.7L54,97c-0.6,0.6-1.3,0.9-2.1,0.9s-1.6-0.3-2.2-0.9c-0.6-0.6-0.9-1.3-0.9-2.2c0-0.9,0.3-1.6,0.9-2.2
	c0.6-0.6,1.3-0.9,2.2-0.9c0.8,0,1.5,0.3,2.1,0.9l-0.4,0.3c-0.5-0.5-1.1-0.7-1.8-0.7S50.5,92.5,50,93s-0.7,1.1-0.7,1.8
	c0,0.7,0.3,1.3,0.7,1.8c0.5,0.5,1.1,0.8,1.8,0.8C52.4,97.4,53,97.1,53.6,96.7"/>
<path class="st0" d="M59.9,94.6c-0.4-0.1-0.8-0.3-1-0.6c-0.3-0.3-0.4-0.6-0.4-0.9c0-0.4,0.1-0.7,0.4-0.9c0.3-0.3,0.6-0.4,0.9-0.4
	c0.4,0,0.7,0.1,0.9,0.4c0.1,0.1,0.3,0.3,0.3,0.5l-0.5,0.2c-0.1-0.2-0.1-0.3-0.2-0.4c-0.2-0.2-0.4-0.2-0.6-0.2
	c-0.2,0-0.4,0.1-0.6,0.2C59,92.6,59,92.8,59,93s0.1,0.4,0.2,0.6c0.2,0.2,0.4,0.3,0.7,0.4c0.5,0.2,0.9,0.4,1.2,0.7
	c0.4,0.4,0.5,0.8,0.5,1.3s-0.2,0.9-0.5,1.3c-0.4,0.4-0.8,0.5-1.3,0.5s-0.9-0.2-1.3-0.5c-0.3-0.3-0.5-0.6-0.5-1l0.5-0.2
	c0,0.4,0.2,0.7,0.4,0.9c0.3,0.3,0.6,0.4,0.9,0.4c0.4,0,0.7-0.1,0.9-0.4c0.3-0.3,0.4-0.6,0.4-0.9c0-0.4-0.1-0.7-0.4-0.9
	C60.5,94.9,60.2,94.7,59.9,94.6"/>
<path class="st0" d="M67.9,92.6c0.6,0.6,0.9,1.3,0.9,2.2s-0.3,1.6-0.9,2.2s-1.3,0.9-2.2,0.9c-0.8,0-1.6-0.3-2.2-0.9
	c-0.6-0.6-0.9-1.3-0.9-2.2s0.3-1.6,0.9-2.2s1.3-0.9,2.2-0.9C66.5,91.7,67.3,92,67.9,92.6 M65.7,92.2c-0.7,0-1.3,0.3-1.8,0.8
	c-0.5,0.5-0.8,1.1-0.8,1.8c0,0.7,0.3,1.3,0.8,1.8c0.5,0.5,1.1,0.8,1.8,0.8s1.3-0.3,1.8-0.8s0.8-1.1,0.8-1.8c0-0.7-0.3-1.3-0.8-1.8
	C67,92.4,66.4,92.2,65.7,92.2 M65.9,90.3l1,1h-0.6l-0.6-0.5l-0.6,0.5h-0.6l1-1H65.9z M67.9,89.6l-1.1,0.9h-0.5l0.7-0.9H67.9z"/>
<polygon class="st0" points="70.2,91.8 70.7,91.8 73.5,96.7 73.5,91.8 74,91.8 74,97.8 73.6,97.8 70.7,92.8 70.7,97.8 70.2,97.8 "/>
<path class="st0" d="M80.6,97c-0.6,0.6-1.3,0.8-2.1,0.8c-0.8,0-1.6-0.3-2.2-0.9s-0.9-1.3-0.9-2.2c0-0.9,0.3-1.6,0.9-2.2
	s1.3-0.9,2.2-0.9c0.8,0,1.5,0.3,2.1,0.9l-0.4,0.3c-0.5-0.5-1.1-0.7-1.8-0.7c-0.7,0-1.3,0.3-1.8,0.8s-0.7,1.1-0.7,1.8
	c0,0.7,0.2,1.3,0.7,1.8s1.1,0.8,1.8,0.8c0.6,0,1.1-0.2,1.6-0.5V95h0.5L80.6,97L80.6,97z"/>
<polygon class="st0" points="86.8,92.3 86.8,97.8 86.3,97.8 86.3,92.3 84.8,92.3 84.8,91.8 88.2,91.8 88.2,92.3 "/>
<path class="st0" d="M94.5,92.6c0.6,0.6,0.9,1.3,0.9,2.2s-0.3,1.6-0.9,2.2s-1.3,0.9-2.2,0.9c-0.8,0-1.6-0.3-2.2-0.9
	s-0.9-1.3-0.9-2.2s0.3-1.6,0.9-2.2s1.3-0.9,2.2-0.9S93.9,92,94.5,92.6 M92.3,92.2c-0.7,0-1.3,0.3-1.8,0.8s-0.8,1.1-0.8,1.8
	c0,0.7,0.3,1.3,0.8,1.8s1.1,0.8,1.8,0.8c0.7,0,1.3-0.3,1.8-0.8s0.8-1.1,0.8-1.8c0-0.7-0.3-1.3-0.8-1.8C93.6,92.4,93,92.2,92.3,92.2
	 M92.5,90.3l1,1H93l-0.6-0.5l-0.6,0.5h-0.6l1-1H92.5z M94.5,89.6l-1.1,0.9h-0.5l0.7-0.9H94.5z"/>
<polygon class="st0" points="98.4,92.3 98.4,97.8 97.9,97.8 97.9,92.3 96.4,92.3 96.4,91.8 99.9,91.8 99.9,92.3 "/>
<path class="st0" d="M104.3,94.5v-2.8h0.5l0,0h-0.1c1,0,1.7,0.3,2.3,0.8c0.6,0.6,0.9,1.3,0.9,2.2c0,0.9-0.3,1.6-0.9,2.2
	c-0.5,0.5-1.3,0.8-2.3,0.8h0.1l0,0h-0.5V95h-0.6v-0.5H104.3L104.3,94.5z M104.8,94.5h1.3V95h-1.3v2.2c0.8,0,1.4-0.2,1.9-0.7
	s0.8-1.1,0.8-1.8c0-0.7-0.3-1.3-0.8-1.8c-0.4-0.5-1.1-0.7-1.9-0.7V94.5z"/>
<path class="st0" d="M112.4,91.8v0.5h-2.6v2.3h2.6V95h-2.6v2.3h2.6v0.5h-3.1v-6H112.4z M111.2,98.3c0.1,0.1,0.1,0.2,0.1,0.3
	c0,0.1,0,0.2-0.1,0.3c-0.1,0.1-0.2,0.1-0.3,0.1c-0.1,0-0.2,0-0.3-0.1s-0.1-0.2-0.1-0.3c0-0.1,0-0.2,0.1-0.3c0.1-0.1,0.2-0.1,0.3-0.1
	C111,98.2,111.1,98.2,111.2,98.3"/>
<path class="st0" d="M114.3,95.8v2h-0.5v-6h1.6c0.5,0.1,0.9,0.3,1.2,0.6c0.4,0.4,0.6,0.9,0.6,1.4c0,0.6-0.2,1-0.6,1.4
	s-0.9,0.6-1.4,0.6H114.3L114.3,95.8z M114.3,92.3v3h0.9c0.4,0,0.8-0.1,1-0.4c0.3-0.3,0.4-0.6,0.4-1.1c0-0.4-0.1-0.8-0.4-1.1
	s-0.6-0.4-1-0.4H114.3z"/>
<polygon class="st0" points="122,95.2 122,97.8 121.5,97.8 121.5,91.8 122,91.8 122,94.7 124.3,94.7 124.3,91.8 124.8,91.8 
	124.8,97.8 124.3,97.8 124.3,95.2 "/>
<path class="st0" d="M131.6,92.8c0.5,0.6,0.7,1.2,0.7,2c0,0.9-0.3,1.6-0.9,2.2c-0.6,0.6-1.3,0.9-2.2,0.9c-0.8,0-1.6-0.3-2.2-0.9
	s-0.9-1.3-0.9-2.2c0-0.9,0.3-1.6,0.9-2.2s1.3-0.9,2.2-0.9c0.8,0,1.6,0.3,2.2,0.9C131.4,92.6,131.4,92.6,131.6,92.8l0.1-1h0.5l-0.5,1
	H131.6L131.6,92.8z M129.3,92.2c-0.7,0-1.3,0.3-1.8,0.8s-0.8,1.1-0.8,1.8c0,0.7,0.3,1.3,0.8,1.8s1.1,0.8,1.8,0.8s1.3-0.3,1.8-0.8
	s0.8-1.1,0.8-1.8c0-0.7-0.3-1.3-0.8-1.8C130.6,92.4,130,92.2,129.3,92.2"/>
<polygon class="st0" points="133.7,91.8 134.2,91.8 137.1,96.7 137.1,91.8 137.6,91.8 137.6,97.8 137.1,97.8 134.2,92.8 134.2,97.8 
	133.7,97.8 "/>
<path class="st1" d="M68.9,82.9l-0.3-0.4l-1.5-2.2c0.5-0.1,0.9-0.4,1.2-0.7c0.3-0.4,0.4-0.8,0.4-1.4c0-0.4-0.1-0.7-0.2-1
	s-0.3-0.6-0.6-0.8c-0.2-0.2-0.5-0.3-0.8-0.4s-0.9-0.1-1.7-0.1h-1.3h-0.3h-0.3c-0.1,0-0.2,0.1-0.2,0.2v0.2v0.4v5.7v0.4v0.3
	c0,0.1,0.1,0.2,0.2,0.2h0.2h0.4h1.1v-2.9l1.7,2.9h0.9h0.9h0.1C68.9,83.3,69,83.1,68.9,82.9 M66.5,79.1c-0.2,0.1-0.5,0.2-1,0.2h-0.4
	v-2h0.4c0.4,0,0.8,0.1,0.9,0.2c0.2,0.2,0.3,0.4,0.3,0.8C66.8,78.8,66.7,79,66.5,79.1"/>
<path class="st1" d="M79.2,79.6c0,0.5-0.1,1-0.3,1.5c-0.2,0.5-0.5,0.9-0.9,1.3s-0.8,0.6-1.3,0.8c-0.5,0.2-1,0.3-1.5,0.3
	s-1-0.1-1.5-0.3c-0.5-0.2-0.9-0.5-1.3-0.8c-0.4-0.4-0.7-0.8-0.9-1.3c-0.2-0.5-0.3-1-0.3-1.5s0.1-1,0.3-1.5c0.2-0.5,0.5-0.9,0.9-1.3
	s0.8-0.6,1.3-0.8c0.5-0.2,1-0.3,1.5-0.3s1,0.1,1.5,0.3c0.5,0.2,0.9,0.5,1.3,0.8c0.4,0.4,0.7,0.8,0.9,1.3
	C79.1,78.5,79.2,79,79.2,79.6 M75.2,81.8c0.6,0,1-0.2,1.4-0.6s0.5-0.9,0.5-1.6c0-0.6-0.2-1.1-0.6-1.6c-0.4-0.4-0.8-0.6-1.4-0.6
	s-1,0.2-1.4,0.6s-0.5,0.9-0.5,1.6c0,0.6,0.2,1.2,0.5,1.6C74.2,81.6,74.7,81.8,75.2,81.8"/>
<path class="st1" d="M82.5,75.8H84c0.1,0,0.2,0.1,0.2,0.2v3.4c0,0.5,0,0.9,0,1.1s0.1,0.4,0.1,0.6c0.1,0.2,0.2,0.3,0.4,0.4
	c0.2,0.1,0.4,0.1,0.7,0.1s0.5,0,0.7-0.1s0.3-0.2,0.4-0.4c0.1-0.2,0.1-0.3,0.1-0.6c0-0.2,0-0.6,0-1.1V79v-2.9c0-0.1,0.1-0.2,0.2-0.2
	h1.5c0.1,0,0.2,0.1,0.2,0.2v3.7c0,0.8,0,1.4-0.1,1.8s-0.3,0.7-0.5,1c-0.3,0.3-0.6,0.5-1,0.7s-1,0.2-1.6,0.2s-1.2-0.1-1.6-0.2
	c-0.4-0.2-0.8-0.4-1-0.7c-0.2-0.3-0.4-0.6-0.5-1s-0.1-1-0.1-1.8V79v-2.9C82.2,76,82.3,75.8,82.5,75.8"/>
<path class="st1" d="M97.4,77.2c-0.1-0.3-0.4-0.6-0.6-0.8C96.6,76.2,96.3,76,96,76c-0.3-0.1-0.8-0.1-1.5-0.1l0,0h-2.1
	c-0.1,0-0.2,0.1-0.2,0.2v0.2v0.6v5.4V83v0c0,0.1,0.1,0.2,0.2,0.2h0.2h0.5H94v-2.5h0.4h0.3c0.6,0,1.1,0,1.4-0.1s0.5-0.2,0.7-0.4
	c0.3-0.2,0.5-0.5,0.6-0.8s0.2-0.7,0.2-1.2C97.6,78,97.6,77.6,97.4,77.2 M95.4,79c-0.2,0.1-0.5,0.2-1,0.2H94v-1.7h0.4
	c0.5,0,0.8,0.1,1,0.2s0.3,0.4,0.3,0.7C95.7,78.6,95.6,78.9,95.4,79"/>
<path class="st1" d="M60.2,79.1c0-0.1,0-0.1,0-0.2h-2l0,0h-1h-0.4h-0.3c-0.1,0-0.2,0.1-0.2,0.2v0.2v0.4v0.8h2
	c-0.1,0.3-0.2,0.5-0.4,0.7c0,0.1-0.1,0.1-0.2,0.2c-0.4,0.3-0.8,0.5-1.3,0.5c-0.3,0-0.6-0.1-0.8-0.2c-0.3-0.1-0.5-0.3-0.7-0.5
	c-0.1-0.1-0.1-0.1-0.2-0.2c-0.2-0.3-0.4-0.7-0.4-1.1l0,0c0-0.1,0-0.2,0-0.3c0-0.7,0.2-1.3,0.5-1.7c0.3-0.4,0.8-0.6,1.4-0.6
	c0.3,0,0.6,0.1,0.9,0.2c0.2,0.1,0.4,0.3,0.6,0.5c0.1,0.1,0.2,0.1,0.3,0.1l1.3-0.6c0.1-0.1,0.2-0.3,0.1-0.4c-0.3-0.4-0.8-0.8-1.2-1
	c-0.6-0.3-1.2-0.4-1.9-0.4c-0.6,0-1.1,0.1-1.6,0.3c-0.5,0.2-0.9,0.5-1.3,0.8c-0.4,0.4-0.7,0.8-0.8,1.3c-0.2,0.5-0.3,1-0.3,1.5
	s0.1,1,0.3,1.5s0.5,0.9,0.8,1.3c0.4,0.4,0.8,0.6,1.2,0.8c0.5,0.2,1,0.3,1.6,0.3c1.2,0,2.2-0.4,2.8-1.1c0.7-0.7,1-1.7,1-3
	C60.2,79.3,60.2,79.2,60.2,79.1"/>
</svg>
