<?xml version="1.0" encoding="utf-8"?>
<!-- Generator: Adobe Illustrator 21.1.0, SVG Export Plug-In . SVG Version: 6.00 Build 0)  -->
<svg version="1.1" id="Layer_1" xmlns="http://www.w3.org/2000/svg" xmlns:xlink="http://www.w3.org/1999/xlink" x="0px" y="0px"
	 width="60px" height="60px" viewBox="0 0 60 60" style="enable-background:new 0 0 60 60;" xml:space="preserve">
<style type="text/css">
	.st0{fill:#BFBF91;}
</style>
<path class="st0" d="M44.4,22.8c0-0.1,0-0.2-0.1-0.3c0-0.1,0-0.1,0-0.2c-0.4-1.1-1.4-1.9-2.7-1.9h0.2c0,0-5-0.8-11.7-0.8
	s-11.7,0.8-11.7,0.8h0.2c-1.3,0-2.3,0.8-2.7,1.9c0,0,0,0.1,0,0.2s-0.1,0.2-0.1,0.3c-0.2,1.3-0.5,3.9-0.5,7s0.3,5.7,0.5,7
	c0,0.1,0,0.2,0.1,0.3c0,0.1,0,0.1,0,0.2c0.4,1.1,1.4,1.9,2.7,1.9h-0.3c0,0,5,0.8,11.7,0.8s11.7-0.8,11.7-0.8h-0.2
	c1.2,0,2.3-0.8,2.7-1.9c0-0.1,0-0.1,0-0.2c0-0.1,0.1-0.2,0.1-0.3c0.2-1.3,0.5-3.9,0.5-7C44.9,26.7,44.6,24.1,44.4,22.8z M34.5,30.5
	l-6,4.3c-0.1,0.1-0.3,0.1-0.4,0.1s-0.2,0-0.3-0.1c-0.2-0.1-0.4-0.4-0.4-0.6v-8.7c0-0.3,0.2-0.5,0.4-0.6c0.2-0.1,0.5-0.1,0.8,0.1
	l6,4.3c0.2,0.1,0.3,0.4,0.3,0.6C34.7,30.1,34.6,30.3,34.5,30.5z"/>
</svg>
